# xmcd
#
# Track frame offsets: 
#        150
#        3158
#        22411
#        39320
#        53757
#
# Disc length: 884 seconds
#
# Revision: 0
# Processed by: cddbd v1.5.2PL0 Copyright (c) Steve Scherf et al.
# Submitted via: ExactAudioCopyFreeDBPlugin 1.0
#
DISCID=34037205
DTITLE=So Semmer Halt - So Semmer Halt
DYEAR=2013
DGENRE=Folklore
TTITLE0=Intro
TTITLE1=I Ben No En Dr Onderhos
TTITLE2=Halt Doch Oifach Mal Dei Gosch
TTITLE3=Sauerei
TTITLE4=Dohoim
EXTD=
EXTT0=
EXTT1=
EXTT2=
EXTT3=
EXTT4=
PLAYORDER=
